<?xml version="1.0" encoding="utf-8"?>
<!-- Generator: Adobe Illustrator 25.0.0, SVG Export Plug-In . SVG Version: 6.00 Build 0)  -->
<svg version="1.1" id="Layer_1" xmlns="http://www.w3.org/2000/svg" xmlns:xlink="http://www.w3.org/1999/xlink" x="0px" y="0px"
	 viewBox="0 0 74.4 47.3" style="enable-background:new 0 0 74.4 47.3;" xml:space="preserve">
<style type="text/css">
	.st0{fill:#367377;}
	.st1{opacity:0.6;fill:#194747;enable-background:new    ;}
	.st2{fill:#4BA3A5;}
	.st3{opacity:0.54;fill:#FFFFFF;enable-background:new    ;}
	.st4{fill:url(#SVGID_1_);}
</style>
<g>
	<g id="Layer_2_1_">
		<g id="Layer_1-2">
			<path class="st0" d="M74.3,13.3c0.3-2.6-0.4-5.1-1.8-7.2c-1.3-1.8-3-3.3-5-4.3c-1.9-1-4-1.6-6.2-1.7c-2.1-0.1-4.2,0.3-6.2,1.1
				c-1.8,0.8-3.5,1.9-5,3.2c-1.4,1.3-2.7,2.7-3.8,4.2c-1.3,1.8-2.5,3.6-3.6,5.5c-2.7-1-5.5-2.1-8.4-3c-3.9-1.5-7.9-2.4-12.1-2.7
				c-1.2-0.1-2.3,0-3.5,0.1c-1.2,0.1-2.4,0.3-3.6,0.6c-1.3,0.3-2.5,0.8-3.7,1.3c-1.3,0.6-2.5,1.3-3.6,2.1c-2.4,1.8-4.3,4.1-5.6,6.7
				c-1.3,2.7-2,5.6-2.1,8.6c0,1.5,0.1,3,0.4,4.4c0.2,0.7,0.4,1.5,0.7,2.2c0.3,0.7,0.6,1.4,1,2.1c0.6,1.1,1.3,2.1,2.1,3.1
				c0.8,1,1.7,2,2.7,2.9c1,0.9,2.2,1.8,3.4,2.5c1.3,0.7,2.7,1.3,4.1,1.7c1.4,0.4,2.9,0.5,4.3,0.5c1.4,0,2.7-0.2,4-0.6
				c2.3-0.7,4.5-1.7,6.4-3.2c1.7-1.3,3.2-2.7,4.6-4.3c2.5-2.9,4.6-6.1,6.4-9.6c0.8-1.7,1.6-3.3,2.3-5l0.8-2l1.8,0.4
				c0.9,0.2,1.9,0.4,2.8,0.5c1.9,0.3,3.8,0.6,5.7,0.7c2,0.2,3.9,0.2,5.9,0c2.1-0.1,4.1-0.5,6.1-1.1c2.2-0.7,4.2-1.8,5.9-3.4
				C73,18.1,74,15.7,74.3,13.3z M35.7,27c-1.8,2.8-4,5.3-6.5,7.5c-1.2,1-2.5,1.9-3.9,2.6c-1.2,0.6-2.6,1-4,1.1
				c-7-0.2-9.2-8-5.8-12.4c0.5-0.7,1.2-1.3,1.8-1.8c0.8-0.6,1.7-1.2,2.6-1.6c1.2-0.5,2.4-0.8,3.6-1.1c2.9-0.5,6-0.7,8.9-0.4
				c2.1,0.2,4.2,0.5,6.3,0.9C38.7,22.1,36.6,25.6,35.7,27z M66.6,15.7c-1,0.8-2.3,1.4-3.6,1.6c-2.9,0.4-5.8,0.4-8.7,0
				c-2.7-0.3-5.3-0.9-7.8-1.8c0.2-0.3,2.1-3.1,3.2-4.4c1.9-2.4,4.4-4.2,7.2-5.4c1.2-0.5,2.6-0.7,3.9-0.6c1.4,0.1,2.7,0.5,3.9,1.2
				C69.2,8.9,69.2,13.5,66.6,15.7z"/>
			<path class="st1" d="M33.6,39.3c2.5-2.9,4.6-6.1,6.4-9.6c0.8-1.7,1.6-3.3,2.3-5l0.8-2l-4.2-0.9c-0.2,0.3-2.2,3.8-3.2,5.2
				c-1.8,2.8-4,5.3-6.5,7.5c-1.2,1-2.5,1.9-3.9,2.6c-1.2,0.6-2.6,1-4,1.1c-7-0.2-9.2-8-5.8-12.4c0.5-0.7,1.2-1.3,1.9-1.8
				c0.8-0.6,1.7-1.2,2.6-1.6c0.3-0.1,0.6-0.3,1-0.4l0,0C3.2,26.9,6.2,49.3,22.6,46.7c2.3-0.7,4.5-1.7,6.4-3.2
				C30.7,42.3,32.3,40.9,33.6,39.3z"/>
			<path class="st2" d="M55.1,1.2c-1.8,0.8-3.5,1.9-5,3.2c-1.4,1.3-2.7,2.7-3.8,4.2c-1.3,1.8-2.5,3.6-3.6,5.5l3.9,1.4
				c0.2-0.3,2.1-3.1,3.2-4.4c1.9-2.4,4.4-4.2,7.2-5.4c1.2-0.5,2.6-0.7,3.9-0.6c1.4,0.1,2.7,0.5,3.9,1.2c4.6,2.6,4.6,7.2,2,9.4
				c-1,0.8-2.3,1.4-3.6,1.6c-1.5,0.3-2.9,0.4-4.4,0.3l0,0c13.8,0.7,18.2-10.9,8.8-16c-1.9-1-4-1.6-6.2-1.6C59.1-0.1,57,0.3,55.1,1.2
				z"/>
			<path class="st3" d="M7.5,13.1c1.1-0.8,2.3-1.5,3.6-2.1c1.2-0.5,2.4-1,3.7-1.3c1.2-0.3,2.4-0.5,3.6-0.6C19.5,9,20.7,8.9,21.8,9
				c4.1,0.3,8.2,1.2,12.1,2.6c2.9,1,5.7,2,8.4,3.1l3.8,1.4c2.6,0.8,5.2,1.4,7.8,1.8c1.4,0.2,2.8,0.3,4.3,0.3l0,0
				c6.9,0.3,11.4-2.3,13.1-5.7c-1.9,3.1-6.3,5.5-12.7,5.2l0,0c-1.4,0-2.9-0.1-4.3-0.3c-2.7-0.3-5.3-0.9-7.8-1.8l-3.8-1.4
				c-2.7-1-5.5-2.1-8.4-3c-3.9-1.5-7.9-2.4-12.1-2.7c-1.2-0.1-2.3,0-3.5,0.1c-1.2,0.1-2.4,0.3-3.6,0.6c-1.3,0.3-2.5,0.8-3.7,1.3
				c-1.3,0.6-2.5,1.3-3.6,2.1c-2.2,1.7-4.1,3.8-5.4,6.2C3.7,16.5,5.4,14.6,7.5,13.1z"/>
			<path class="st3" d="M58.3,17.6c-1.3,0-2.7-0.1-4-0.3c-2.7-0.3-5.3-0.9-7.8-1.8l-3.8-1.4c-2.7-1-5.5-2.1-8.4-3
				c-2.9-1-5.9-1.8-8.9-2.4c6.2,1.6,12.3,3.6,18.3,6C52.3,18.3,58.3,17.6,58.3,17.6z"/>
			<g>
				
					<linearGradient id="SVGID_1_" gradientUnits="userSpaceOnUse" x1="-364.6035" y1="33.16" x2="-363.9936" y2="28.11" gradientTransform="matrix(0.8795 0.4759 0.4759 -0.8795 345.9793 224.0836)">
					<stop  offset="0" style="stop-color:#2B3C90"/>
					<stop  offset="0.34" style="stop-color:#3676BA"/>
					<stop  offset="0.64" style="stop-color:#3FA2D9"/>
					<stop  offset="0.87" style="stop-color:#44BDED"/>
					<stop  offset="1" style="stop-color:#46C7F4"/>
				</linearGradient>
				<path class="st4" d="M38,23.6c1.5-0.3,3.1,0,4.4,0.8l0.7-1.8l-4.2-0.9c-0.1,0.1-0.5,0.9-1.1,1.9L38,23.6z"/>
			</g>
		</g>
	</g>
</g>
</svg>
